<svg width="60" height="60" viewBox="0 0 60 60" fill="none" xmlns="http://www.w3.org/2000/svg">
<path d="M35.3885 18.6281L31.1248 10.4699C30.9073 10.0631 30.4854 9.78932 29.9998 9.78932C29.5141 9.78932 29.0923 10.0612 28.8785 10.4624L28.8748 10.4699L10.1529 44.0212L35.3885 18.6281ZM50.3473 47.2537L45.0748 14.4506C44.9773 13.8412 44.4541 13.3799 43.8241 13.3799C43.4698 13.3799 43.151 13.5243 42.9204 13.7587L9.65039 47.2556L28.0573 57.6281C28.5935 57.9337 29.2348 58.1156 29.9173 58.1156C30.5998 58.1156 31.2429 57.9356 31.796 57.6187L31.7773 57.6281L50.3473 47.2537ZM10.9966 38.6043L16.5373 2.96432C16.6329 2.34932 17.1579 1.88245 17.7935 1.88245C18.2773 1.88245 18.6991 2.15245 18.9129 2.55182L18.9166 2.55932L24.8754 13.7381L10.9966 38.6043Z" fill="white"/>
</svg>
