<svg width="60" height="60" viewBox="0 0 60 60" fill="none" xmlns="http://www.w3.org/2000/svg">
<path d="M18.0616 14.94H25.0947V34.6537C25.0947 43.5375 20.8366 46.6387 14.0341 46.6387C12.3691 46.6387 10.2391 46.3612 8.85156 45.8981L9.63906 40.2056C10.6103 40.53 11.8609 40.7606 13.2484 40.7606C16.2109 40.7606 18.0616 39.4181 18.0616 34.6068V14.94ZM31.2016 38.9118C33.0522 39.8831 36.0147 40.8562 39.0222 40.8562C42.2622 40.8562 43.9741 39.5137 43.9741 37.4325C43.9741 35.535 42.4928 34.3781 38.7447 33.0825C33.5622 31.2318 30.1384 28.3631 30.1384 23.7806C30.1384 18.4593 34.6272 14.4337 41.9378 14.4337C45.5003 14.4337 48.0466 15.1275 49.8972 16.0068L48.3241 21.6525C47.1203 21.0506 44.8534 20.1712 41.8459 20.1712C38.7916 20.1712 37.3103 21.6056 37.3103 23.1787C37.3103 25.1681 39.0222 26.0475 43.0947 27.6206C48.6016 29.6568 51.1459 32.5256 51.1459 36.9675C51.1459 42.1968 47.1672 46.6387 38.6059 46.6387C35.0434 46.6387 31.5259 45.6675 29.7672 44.6943L31.2016 38.9118Z" fill="white"/>
</svg>
