<svg width="60" height="60" viewBox="0 0 60 60" fill="none" xmlns="http://www.w3.org/2000/svg">
<path d="M29.6645 43.4719C29.6645 43.4719 29.6645 24.045 30.3095 24.0469C30.8083 24.0469 31.457 49.1063 31.457 49.1063C30.5645 49.0013 29.6645 44.9832 29.6645 43.4719ZM42.167 24.2719C40.4439 16.7419 36.6695 10.2675 31.4645 5.27065L31.4514 5.2594C30.8177 4.2919 30.2383 3.1819 29.7733 2.0119L29.7283 1.8844C29.7302 1.9219 29.7302 1.9669 29.7302 2.0119C29.7302 3.07127 29.2558 4.01815 28.5077 4.65377L28.502 4.65752C21.8008 10.3463 17.537 18.7294 17.3964 28.11V28.1344C17.3945 28.2506 17.3945 28.3875 17.3945 28.5244C17.3945 37.8188 21.8664 46.0688 28.7758 51.24L28.8489 51.2925L29.012 51.4107C29.3133 53.6407 29.5708 55.8757 29.7845 58.1157H30.9114C31.2227 55.32 31.6427 52.8732 32.192 50.4732L32.1058 50.9213C32.8483 50.4057 33.497 49.8713 34.1027 49.2919L34.097 49.2975C39.3489 44.4282 42.6264 37.4906 42.6264 29.79C42.6264 29.6756 42.6264 29.5632 42.6245 29.4488V29.4656C42.6189 27.6263 42.452 25.8281 42.1352 24.0825L42.1633 24.2681L42.167 24.2719Z" fill="white"/>
</svg>
