<svg width="78" height="78" viewBox="0 0 78 78" fill="none" xmlns="http://www.w3.org/2000/svg">
<g clip-path="url(#clip0_32_341)">
<path d="M19.7045 27.7359H34.416V28.9052H21.0531V37.7057H33.6192V38.8749H21.0531V48.537H34.5693V49.7063H19.7045V27.7359ZM35.7339 27.7359H37.297L44.2237 37.3979L51.3036 27.7359L60.9335 15.4629L45.1125 38.4134L53.2652 49.7063H51.6408L44.2237 39.4288L36.776 49.7063H35.1823L43.3962 38.4134L35.7339 27.7359ZM53.8475 28.9052V27.7359H70.6125V28.9052H62.8889V49.7063H61.5404V28.9052H53.8475ZM1.2998 27.7359H2.9855L26.2302 62.5194L16.6243 49.7063L2.70966 29.3975L2.64836 49.7063H1.2998V27.7359ZM70.4766 48.1841C70.2011 48.1841 69.9945 47.9706 69.9945 47.6948C69.9945 47.4189 70.2011 47.2054 70.4766 47.2054C70.7554 47.2054 70.9588 47.4189 70.9588 47.6948C70.9588 47.9706 70.7554 48.1841 70.4766 48.1841ZM71.8017 46.8967H72.5233C72.5332 47.2875 72.8185 47.5503 73.2384 47.5503C73.7074 47.5503 73.9731 47.2678 73.9731 46.739V43.3891H74.7078V46.7423C74.7078 47.6948 74.1568 48.2432 73.2449 48.2432C72.3889 48.2432 71.8017 47.7112 71.8017 46.8967ZM75.6689 46.854H76.397C76.4593 47.3039 76.8988 47.5897 77.5319 47.5897C78.1223 47.5897 78.5552 47.2842 78.5552 46.8638C78.5552 46.5026 78.2797 46.2858 77.6533 46.138L77.0432 45.9902C76.1871 45.7899 75.7968 45.3761 75.7968 44.6798C75.7968 43.8357 76.4856 43.2741 77.5188 43.2741C78.4798 43.2741 79.1817 43.8357 79.2244 44.6338H78.5093C78.4404 44.197 78.06 43.9244 77.5089 43.9244C76.9284 43.9244 76.5413 44.2036 76.5413 44.6305C76.5413 44.9688 76.7906 45.1626 77.4072 45.3071L77.9288 45.4352C78.8996 45.6618 79.2998 46.0559 79.2998 46.7686C79.2998 47.6751 78.5979 48.2432 77.4761 48.2432C76.4265 48.2432 75.7213 47.7013 75.6689 46.854Z" fill="white"/>
</g>
<defs>
<clipPath id="clip0_32_341">
<rect width="78" height="78" fill="white"/>
</clipPath>
</defs>
</svg>
