<svg width="60" height="60" viewBox="0 0 60 60" fill="none" xmlns="http://www.w3.org/2000/svg">
<path d="M56.5532 17.3284V42.6541C56.5532 44.2977 55.6689 45.828 54.2479 46.6552L32.3048 59.3251C31.603 59.7322 30.8069 59.9414 29.994 59.9414C29.1927 59.9414 28.3945 59.7322 27.6925 59.3251L20.3659 54.9903C19.273 54.3801 19.8063 54.1631 20.1676 54.0378C21.627 53.5313 21.9222 53.4146 23.4802 52.5304C23.6428 52.4375 23.8571 52.4738 24.0248 52.5706L29.6534 55.9127C29.8575 56.0277 30.1456 56.0277 30.3332 55.9127L52.2781 43.2464C52.4825 43.1297 52.6135 42.8968 52.6135 42.6542V17.3284C52.6135 17.0803 52.4825 16.8486 52.273 16.7233L30.3371 4.06825C30.1348 3.94989 29.8648 3.94989 29.6612 4.06825L7.73023 16.7268C7.51719 16.8487 7.38277 17.0877 7.38277 17.3284V42.6541C7.38277 42.8966 7.51707 43.1239 7.72894 43.2389L13.7405 46.714C17.0018 48.3432 18.9993 46.4227 18.9993 44.4925V19.4893C18.9993 19.1358 19.2833 18.857 19.6367 18.857H22.4196C22.7675 18.857 23.0558 19.1356 23.0558 19.4893V44.4927C23.0558 48.8457 20.6844 51.3427 16.5575 51.3427C15.29 51.3427 14.2903 51.3427 11.5023 49.9701L5.74859 46.6552C4.32676 45.8355 3.44727 44.2978 3.44727 42.6541V17.3284C3.44727 15.6827 4.32676 14.1467 5.74859 13.3282L27.6927 0.647549C29.0813 -0.137725 30.928 -0.137725 32.3048 0.647549L54.2479 13.3282C55.6689 14.1501 56.5532 15.6827 56.5532 17.3284ZM37.6375 40.2383C31.0891 40.2383 29.6483 38.592 29.1656 35.3356C29.1097 34.9881 28.8119 34.7292 28.4551 34.7292H25.2552C24.8588 34.7292 24.5408 35.0459 24.5408 35.4445C24.5408 39.6117 26.8088 44.5817 37.6375 44.5817C45.4781 44.5817 49.9738 41.4951 49.9738 36.104C49.9738 30.7576 46.3612 29.3353 38.7579 28.3286C31.0728 27.3117 30.2919 26.788 30.2919 24.9879C30.2919 23.5041 30.9532 21.5213 36.6453 21.5213C41.7282 21.5213 43.6021 22.6169 44.3727 26.042C44.4405 26.3648 44.7339 26.6004 45.0668 26.6004H48.2788C48.478 26.6004 48.6672 26.5148 48.8026 26.3727C48.9383 26.2227 49.0104 26.0273 48.9914 25.8225C48.4944 19.9189 44.5719 17.1689 36.6452 17.1689C29.5895 17.1689 25.3814 20.1471 25.3814 25.1379C25.3814 30.5539 29.5684 32.0519 36.3384 32.7201C44.4405 33.5149 45.0693 34.6986 45.0693 36.2929C45.0693 39.0584 42.8505 40.2383 37.6375 40.2383Z" fill="white"/>
</svg>
