<svg width="60" height="60" viewBox="0 0 60 60" fill="none" xmlns="http://www.w3.org/2000/svg">
<path fill-rule="evenodd" clip-rule="evenodd" d="M40.9299 5.3742C44.1239 5.95907 47.3279 7.39695 48.8812 10.3555C50.4817 13.4038 50.3139 16.37 48.9832 18.8672C47.7254 21.2279 45.5347 22.9922 43.3269 24.1775C41.1029 25.3715 38.5962 26.1225 36.3984 26.2695C35.3044 26.3428 34.1542 26.2755 33.1092 25.9383C32.0574 25.5988 30.9004 24.9064 30.2589 23.6069C29.6474 22.3689 30.1554 20.8698 31.3934 20.2584C32.5547 19.6851 33.9454 20.0963 34.6182 21.171C34.6264 21.1738 34.6352 21.1768 34.6447 21.1798C34.8914 21.2595 35.3592 21.328 36.0647 21.2808C37.4664 21.187 39.2859 20.672 40.9617 19.7723C42.6537 18.8639 43.9359 17.7069 44.5707 16.516C45.1324 15.4616 45.2764 14.2459 44.4542 12.6796C43.9532 11.7251 42.6102 10.765 40.0294 10.2924C37.5342 9.8355 34.3682 9.94197 31.1179 10.6181C27.8762 11.2924 24.7098 12.5006 22.1998 14.1098C19.6653 15.7347 18.0134 17.625 17.3787 19.584C16.6921 21.7032 16.9355 23.1947 17.5537 24.4198C18.2319 25.7635 19.474 27.008 21.1866 28.3403C22.0156 28.9853 22.8957 29.6073 23.8232 30.263L23.8736 30.2988C24.8006 30.954 25.7792 31.6468 26.6939 32.369C27.4642 32.9773 28.2512 33.6523 28.9717 34.4118C32.2049 33.7883 35.0062 33.856 37.3017 34.906C40.2574 36.2578 41.7392 38.9218 42.4362 41.937C42.7472 43.2823 41.9087 44.6248 40.5634 44.9358C39.2182 45.2468 37.8757 44.4083 37.5647 43.063C37.0644 40.8983 36.2469 39.9218 35.2222 39.453C34.4709 39.1095 33.3489 38.9138 31.6789 39.0655C33.2189 44.4788 30.5302 49.381 27.2384 52.158C25.4652 53.654 23.2942 54.7443 21.1241 54.9608C18.8543 55.1875 16.4293 54.4263 15.0064 52.0568C13.7498 49.9645 13.7398 47.7398 14.3952 45.7588C15.0259 43.853 16.2713 42.1375 17.6359 40.7175C19.3508 38.9325 21.5079 37.3565 23.5536 36.2603C22.7709 35.6445 21.9144 35.0368 20.9874 34.3815L20.8988 34.3188C19.9995 33.6833 19.0374 33.0033 18.1164 32.2868C16.2387 30.826 14.2783 29.027 13.09 26.6725C11.8418 24.1993 11.5547 21.3375 12.6221 18.0429C13.7414 14.5883 16.4113 11.8815 19.5013 9.90055C22.6158 7.90383 26.3764 6.49737 30.0997 5.72287C33.8142 4.95017 37.6504 4.77365 40.9299 5.3742ZM26.8054 40.225C25.1224 40.9888 22.9335 42.4205 21.2413 44.1815C20.1673 45.2995 19.4537 46.3878 19.1422 47.3295C18.8554 48.196 18.9202 48.8623 19.2927 49.4825C19.4989 49.8258 19.8148 50.0668 20.6274 49.9855C21.5397 49.8945 22.7925 49.3673 24.0143 48.3365C26.3527 46.3638 27.7684 43.3123 26.8054 40.225ZM34.5307 21.1348L34.5349 21.1372L34.5307 21.1348Z" fill="white"/>
</svg>
