<svg width="60" height="60" viewBox="0 0 60 60" fill="none" xmlns="http://www.w3.org/2000/svg">
<path d="M44.6757 15.4557C46.2719 15.827 47.7222 16.6628 48.8439 17.8575C49.4617 18.5041 49.9982 19.2239 50.4414 20.0007C50.462 20.085 47.5651 22.0313 45.8082 23.1169C45.7445 23.16 45.4914 22.8844 45.2045 22.4607C44.8835 21.909 44.428 21.4476 43.8804 21.1198C43.3328 20.7919 42.7111 20.6081 42.0732 20.5857C40.0539 20.4469 38.7526 21.5044 38.762 23.2725C38.7445 23.7069 38.8436 24.1381 39.0489 24.5213C39.4932 25.44 40.3182 25.9913 42.9095 27.1144C47.6795 29.1675 49.727 30.5213 50.9907 32.445C51.7051 33.6605 52.145 35.0175 52.2797 36.4209C52.4145 37.8243 52.2408 39.2402 51.7707 40.5694C51.1248 42.0271 50.1004 43.2853 48.804 44.2134C47.5075 45.1416 45.9863 45.7058 44.3982 45.8475C42.7101 46.0412 41.0045 46.0235 39.3207 45.795C36.7417 45.3713 34.3658 44.1334 32.5407 42.2625C31.8511 41.486 31.2673 40.6216 30.8045 39.6919C30.9991 39.5471 31.204 39.4168 31.4176 39.3019C31.7139 39.1332 32.8351 38.4882 33.8926 37.875L35.8126 36.75L36.2139 37.335C36.8897 38.3015 37.7499 39.1248 38.7451 39.7575C39.7502 40.3088 40.8886 40.57 42.0335 40.5121C43.1783 40.4542 44.2846 40.0793 45.2289 39.4294C45.7159 38.9547 46.0204 38.3236 46.089 37.6469C46.1576 36.9702 45.9858 36.291 45.6039 35.7282C45.0864 34.9875 44.0289 34.365 41.0232 33.0619C38.6665 32.2672 36.5198 30.95 34.7439 29.2088C33.8981 28.245 33.2735 27.1077 32.9139 25.8769C32.6479 24.4747 32.6087 23.039 32.7976 21.6244C33.1504 19.9966 33.9952 18.5166 35.2173 17.385C36.4395 16.2534 37.98 15.5249 39.6301 15.2982C41.3104 15.0974 43.0113 15.1505 44.6757 15.4557ZM29.0326 18.2363L29.0532 20.9625H20.372V45.615H14.2501V20.9682H5.56886V18.2907C5.54577 17.3737 5.5708 16.4562 5.64386 15.5419C5.67573 15.4988 10.9539 15.4782 17.3532 15.4894L28.9989 15.5213L29.0326 18.2363Z" fill="white"/>
</svg>
